<svg xmlns="http://www.w3.org/2000/svg" xmlns:xlink="http://www.w3.org/1999/xlink" width="1443.953" height="468" viewBox="0 0 1443.953 468">
  <defs>
    <clipPath id="clip-path">
      <rect width="1443.953" height="468" fill="none"/>
    </clipPath>
  </defs>
  <g id="Componente_1_1" data-name="Componente 1 – 1" clip-path="url(#clip-path)">
    <path id="Caminho_1" data-name="Caminho 1" d="M221.277,619.962c5.317-287.144,29.246-335,29.246-335s119.643,5.317,132.937,0c6-2.4,15.9,69.393,14.737,144.593-1.416,91.723,0,181.525,0,181.525h84.712s17.536-336.753,9.56-344.729c-3.733-3.733.576-47.532-24.082-71.568C440.478,167.575,383.46,160,383.46,160l-38.51,22.68-26.624,36.305V617.13Z" transform="translate(-218.219 -156.89)" fill="none" stroke="#9d19f5" stroke-width="6"/>
    <path id="Caminho_2" data-name="Caminho 2" d="M641.493,304.991l4.841,340.057s83.139,57.12,90.4,55.91,94.756-22.025,94.756-22.025,27.834-121.017,27.834-127.068S846.011,300.15,846.011,300.15s81.081-3.63,79.871,0-6.051,292.86-6.051,292.86l-88.342,23.7-82.17,18.176-31.586-53.489V300.15Z" transform="translate(-329.244 -235.951)" fill="none" stroke="#9d19f5" stroke-linecap="round" stroke-linejoin="round" stroke-width="6"/>
    <path id="Caminho_3" data-name="Caminho 3" d="M262.125,0h-18.2V-115.135q0-25.257-7.85-36.406T208.426-162.69q-14.563,0-28.329,8.988t-26.736,25.371V0h-18.2V-115.135a118.913,118.913,0,0,0-1.707-21.616q-1.707-9.1-5.8-14.79a24.3,24.3,0,0,0-10.808-8.419q-6.712-2.73-16.5-2.73-14.335,0-27.3,8.988T46.873-128.332V0H28.67V-176.343h18.2v26.167a118.583,118.583,0,0,1,17.179-16.269A80.744,80.744,0,0,1,79.3-175.66,54.858,54.858,0,0,1,92.95-179.87a79.582,79.582,0,0,1,12.4-1.024q17.065,0,29.125,7.964T152-148.583A81.74,81.74,0,0,1,166.445-164.4a72.706,72.706,0,0,1,15.473-9.9,66.292,66.292,0,0,1,15.814-5.12,84.683,84.683,0,0,1,15.473-1.479q48.921,0,48.921,64.166Zm96.719-148.128a85.347,85.347,0,0,1,14.79-15.814,80.966,80.966,0,0,1,15.473-10.012,67.6,67.6,0,0,1,15.018-5.347A64.994,64.994,0,0,1,418-180.894q16.383,0,29.125,6.485a59.372,59.372,0,0,1,21.389,18.431q8.646,11.946,13.2,28.784a142.9,142.9,0,0,1,4.551,37.316q0,21.616-5.461,39.023T465.9-21.161a67.245,67.245,0,0,1-22.3,19,58.854,58.854,0,0,1-27.646,6.712q-12.97,0-28.215-5.12t-28.9-17.862V0h-18.2V-249.155h18.2Zm0,106.033a115.431,115.431,0,0,0,25.6,20.706,57.574,57.574,0,0,0,29.466,7.736q24.574,0,39.364-19.341t14.79-56.885q0-35.951-13.88-54.382T415.5-162.69a50.929,50.929,0,0,0-30.149,9.784q-13.766,9.784-26.508,27.532ZM623.486,4.551a86.175,86.175,0,0,1-33.448-6.257,71.439,71.439,0,0,1-25.826-18.2,82.977,82.977,0,0,1-16.724-29.239q-5.916-17.293-5.916-39.364,0-21.389,5.688-38.568a83.317,83.317,0,0,1,16.155-29.125,70.929,70.929,0,0,1,24.8-18.317,77.583,77.583,0,0,1,31.855-6.371,80.35,80.35,0,0,1,32.538,6.371,68.277,68.277,0,0,1,24.8,18.317,82.564,82.564,0,0,1,15.7,29.125q5.461,17.179,5.461,38.8v4.1h-138.8q1.365,17.976,6.6,31.173a66.741,66.741,0,0,0,13.652,21.958,54.087,54.087,0,0,0,19.455,13.083,65.242,65.242,0,0,0,24.005,4.323,78.536,78.536,0,0,0,18.2-2.162,59.893,59.893,0,0,0,16.5-6.485,43.475,43.475,0,0,0,12.4-10.694A28.136,28.136,0,0,0,676.5-47.556h17.976A61.962,61.962,0,0,1,685.6-25.371,62.078,62.078,0,0,1,669.9-8.988,68.318,68.318,0,0,1,648.743,1.138,90.732,90.732,0,0,1,623.486,4.551Zm56.657-106.943q-4.551-30.263-20.592-45.28T620.073-162.69a62.782,62.782,0,0,0-21.616,3.641A50.637,50.637,0,0,0,580.6-147.9a62.644,62.644,0,0,0-13.2,18.886,95.677,95.677,0,0,0-7.623,26.622Zm167.028-59.843a30.578,30.578,0,0,0-5.461-.455h-6.6a37.1,37.1,0,0,0-15.018,3.186,65.318,65.318,0,0,0-13.88,8.305,88.491,88.491,0,0,0-12.287,11.6,92.008,92.008,0,0,0-9.784,13.311V0h-18.2V-176.343h18.2V-152a95.512,95.512,0,0,1,15.359-14.79,77.849,77.849,0,0,1,14.79-8.874,54.659,54.659,0,0,1,13.766-4.209,79.183,79.183,0,0,1,12.06-1.024q1.82,0,3.413.114t3.641.341Z" transform="translate(596.781 462.388)" fill="#6d6d6d"/>
  </g>
</svg>
